<svg width="390" height="844" viewBox="0 0 390 844" xmlns="http://www.w3.org/2000/svg">
  <defs>
    <linearGradient id="skyGradient" x1="0%" y1="0%" x2="0%" y2="100%">
      <stop offset="0%" style="stop-color:#87CEEB;stop-opacity:1" />
      <stop offset="100%" style="stop-color:#98FB98;stop-opacity:1" />
    </linearGradient>
    <linearGradient id="dinoGradient" x1="0%" y1="0%" x2="100%" y2="100%">
      <stop offset="0%" style="stop-color:#228B22;stop-opacity:1" />
      <stop offset="100%" style="stop-color:#006400;stop-opacity:1" />
    </linearGradient>
    <linearGradient id="cactusGradient" x1="0%" y1="0%" x2="100%" y2="100%">
      <stop offset="0%" style="stop-color:#654321;stop-opacity:1" />
      <stop offset="100%" style="stop-color:#8B4513;stop-opacity:1" />
    </linearGradient>
  </defs>
  
  <!-- Phone background -->
  <rect width="390" height="844" fill="#1a1a1a" rx="40"/>
  
  <!-- Game area background -->
  <rect x="20" y="100" width="350" height="600" fill="url(#skyGradient)" rx="20"/>
  
  <!-- Ground -->
  <rect x="20" y="650" width="350" height="50" fill="#8B4513"/>
  
  <!-- Clouds -->
  <circle cx="100" cy="150" r="25" fill="rgba(255,255,255,0.8)"/>
  <circle cx="120" cy="150" r="30" fill="rgba(255,255,255,0.8)"/>
  <circle cx="140" cy="150" r="25" fill="rgba(255,255,255,0.8)"/>
  <circle cx="120" cy="135" r="20" fill="rgba(255,255,255,0.8)"/>
  
  <circle cx="280" cy="180" r="20" fill="rgba(255,255,255,0.8)"/>
  <circle cx="295" cy="180" r="25" fill="rgba(255,255,255,0.8)"/>
  <circle cx="310" cy="180" r="20" fill="rgba(255,255,255,0.8)"/>
  <circle cx="295" cy="165" r="15" fill="rgba(255,255,255,0.8)"/>
  
  <!-- Cactus obstacles -->
  <rect x="250" y="580" width="20" height="60" fill="url(#cactusGradient)"/>
  <rect x="253" y="560" width="14" height="40" fill="#8B4513"/>
  <rect x="256" y="550" width="8" height="25" fill="#654321"/>
  
  <rect x="320" y="590" width="18" height="50" fill="url(#cactusGradient)"/>
  <rect x="323" y="575" width="12" height="35" fill="#8B4513"/>
  
  <!-- Dino character (jumping) -->
  <rect x="80" y="520" width="40" height="35" fill="url(#dinoGradient)" rx="3"/>
  <rect x="110" y="530" width="25" height="20" fill="url(#dinoGradient)" rx="2"/>
  <rect x="130" y="535" width="15" height="15" fill="url(#dinoGradient)" rx="2"/>
  
  <!-- Dino eye -->
  <circle cx="125" cy="535" r="5" fill="white"/>
  <circle cx="125" cy="535" r="2.5" fill="black"/>
  
  <!-- Dino legs (running) -->
  <rect x="85" y="555" width="10" height="15" fill="url(#dinoGradient)"/>
  <rect x="105" y="555" width="10" height="15" fill="url(#dinoGradient)"/>
  
  <!-- Game UI -->
  <!-- Score display -->
  <rect x="30" y="120" width="120" height="50" fill="rgba(0,0,0,0.3)" rx="10"/>
  <text x="90" y="140" font-family="Arial, sans-serif" font-size="14" fill="white" text-anchor="middle">
    Score
  </text>
  <text x="90" y="160" font-family="Arial, sans-serif" font-size="20" font-weight="bold" fill="white" text-anchor="middle">
    1,247
  </text>
  
  <!-- Best score -->
  <rect x="170" y="120" width="120" height="50" fill="rgba(0,0,0,0.3)" rx="10"/>
  <text x="230" y="140" font-family="Arial, sans-serif" font-size="14" fill="white" text-anchor="middle">
    Best
  </text>
  <text x="230" y="160" font-family="Arial, sans-serif" font-size="20" font-weight="bold" fill="white" text-anchor="middle">
    2,891
  </text>
  
  <!-- Jump button -->
  <circle cx="320" cy="720" r="35" fill="rgba(34, 139, 34, 0.8)"/>
  <text x="320" y="730" font-family="Arial, sans-serif" font-size="24" text-anchor="middle">
    🦘
  </text>
  
  <!-- Game title -->
  <text x="195" y="60" font-family="Arial, sans-serif" font-size="24" font-weight="bold" fill="white" text-anchor="middle">
    🦕 Dino
  </text>
  
  <!-- Status bar simulation -->
  <rect x="0" y="0" width="390" height="44" fill="rgba(0,0,0,0.8)"/>
  <text x="195" y="28" font-family="Arial, sans-serif" font-size="14" fill="white" text-anchor="middle">
    9:41
  </text>
  <rect x="350" y="8" width="30" height="20" fill="rgba(255,255,255,0.3)" rx="4"/>
  <rect x="352" y="10" width="26" height="16" fill="white" rx="2"/>
  
  <!-- Bottom navigation simulation -->
  <rect x="0" y="800" width="390" height="44" fill="rgba(0,0,0,0.8)"/>
</svg>
