<svg width="512" height="512" viewBox="0 0 512 512" xmlns="http://www.w3.org/2000/svg">
  <defs>
    <linearGradient id="dinoGradient" x1="0%" y1="0%" x2="100%" y2="100%">
      <stop offset="0%" style="stop-color:#228B22;stop-opacity:1" />
      <stop offset="100%" style="stop-color:#006400;stop-opacity:1" />
    </linearGradient>
    <linearGradient id="bgGradient" x1="0%" y1="0%" x2="100%" y2="100%">
      <stop offset="0%" style="stop-color:#87CEEB;stop-opacity:1" />
      <stop offset="100%" style="stop-color:#98FB98;stop-opacity:1" />
    </linearGradient>
  </defs>
  
  <!-- Background circle -->
  <circle cx="256" cy="256" r="256" fill="url(#bgGradient)"/>
  
  <!-- Dino body -->
  <ellipse cx="256" cy="280" rx="80" ry="60" fill="url(#dinoGradient)"/>
  
  <!-- Dino head -->
  <ellipse cx="320" cy="250" rx="50" ry="40" fill="url(#dinoGradient)"/>
  
  <!-- Dino snout -->
  <ellipse cx="360" cy="250" rx="25" ry="20" fill="url(#dinoGradient)"/>
  
  <!-- Dino eye -->
  <circle cx="340" cy="240" r="12" fill="white"/>
  <circle cx="340" cy="240" r="6" fill="black"/>
  
  <!-- Dino tail -->
  <ellipse cx="180" cy="280" rx="40" ry="25" fill="url(#dinoGradient)" transform="rotate(-20 180 280)"/>
  
  <!-- Dino legs -->
  <rect x="220" y="320" width="20" height="40" fill="url(#dinoGradient)" rx="10"/>
  <rect x="270" y="320" width="20" height="40" fill="url(#dinoGradient)" rx="10"/>
  
  <!-- Dino spikes on back -->
  <polygon points="240,220 250,200 260,220" fill="url(#dinoGradient)"/>
  <polygon points="280,210 290,190 300,210" fill="url(#dinoGradient)"/>
  <polygon points="320,200 330,180 340,200" fill="url(#dinoGradient)"/>
  
  <!-- Ground line -->
  <rect x="0" y="380" width="512" height="20" fill="#8B4513"/>
</svg>
